{
    "asset": {
        "version": "2.0",
        "generator": "babylon.js glTF exporter for 3ds max 2018 v1.3.32"
    },
    "scene": 0,
    "scenes": [
        {
            "nodes": [
                0,
                1,
                2,
                3,
                4,
                5,
                6
            ],
            "extensions": {}
        }
    ],
    "nodes": [
        {
            "mesh": 0,
            "translation": [
                -2.6,
                0.0,
                -1.5
            ],
            "rotation": [
                0.0,
                0.0,
                0.0,
                1.0
            ],
            "scale": [
                1.0,
                1.0,
                1.0
            ],
            "name": "SphereBump"
        },
        {
            "mesh": 1,
            "translation": [
                0.0,
                0.0,
                3.0
            ],
            "rotation": [
                0.0,
                0.0,
                0.0,
                1.0
            ],
            "scale": [
                1.0,
                1.0,
                1.0
            ],
            "name": "SphereBaseColor"
        },
        {
            "mesh": 2,
            "translation": [
                2.6,
                0.0,
                1.5
            ],
            "rotation": [
                0.0,
                -0.953716934,
                0.0,
                0.30070582
            ],
            "scale": [
                1.0,
                1.0,
                1.0
            ],
            "name": "SphereBaseColorAlpha"
        },
        {
            "mesh": 3,
            "translation": [
                2.6,
                0.0,
                -1.5
            ],
            "rotation": [
                0.0,
                -0.953716934,
                0.0,
                0.30070582
            ],
            "scale": [
                1.0,
                1.0,
                1.0
            ],
            "name": "SphereMetallicRoughness"
        },
        {
            "mesh": 4,
            "translation": [
                0.0,
                0.0,
                -3.0
            ],
            "rotation": [
                0.0,
                0.0,
                0.0,
                1.0
            ],
            "scale": [
                1.0,
                1.0,
                1.0
            ],
            "name": "SphereEmissive"
        },
        {
            "mesh": 5,
            "translation": [
                -2.6,
                0.0,
                1.5
            ],
            "rotation": [
                0.0,
                0.0,
                0.0,
                1.0
            ],
            "scale": [
                1.0,
                1.0,
                1.0
            ],
            "name": "SphereBaseColorAO"
        },
        {
            "translation": [
                0.0,
                0.0,
                0.0
            ],
            "rotation": [
                0.0,
                0.0,
                0.0,
                1.0
            ],
            "scale": [
                1.0,
                1.0,
                1.0
            ],
            "name": "Default light"
        }
    ],
    "meshes": [
        {
            "primitives": [
                {
                    "attributes": {
                        "POSITION": 1,
                        "NORMAL": 2,
                        "TEXCOORD_0": 3
                    },
                    "indices": 0,
                    "mode": 4,
                    "material": 0
                }
            ],
            "name": "SphereBump"
        },
        {
            "primitives": [
                {
                    "attributes": {
                        "POSITION": 5,
                        "NORMAL": 6,
                        "TEXCOORD_0": 7
                    },
                    "indices": 4,
                    "mode": 4,
                    "material": 1
                }
            ],
            "name": "SphereBaseColor"
        },
        {
            "primitives": [
                {
                    "attributes": {
                        "POSITION": 9,
                        "NORMAL": 10,
                        "TEXCOORD_0": 11
                    },
                    "indices": 8,
                    "mode": 4,
                    "material": 2
                }
            ],
            "name": "SphereBaseColorAlpha"
        },
        {
            "primitives": [
                {
                    "attributes": {
                        "POSITION": 13,
                        "NORMAL": 14,
                        "TEXCOORD_0": 15
                    },
                    "indices": 12,
                    "mode": 4,
                    "material": 3
                }
            ],
            "name": "SphereMetallicRoughness"
        },
        {
            "primitives": [
                {
                    "attributes": {
                        "POSITION": 17,
                        "NORMAL": 18,
                        "TEXCOORD_0": 19
                    },
                    "indices": 16,
                    "mode": 4,
                    "material": 4
                }
            ],
            "name": "SphereEmissive"
        },
        {
            "primitives": [
                {
                    "attributes": {
                        "POSITION": 21,
                        "NORMAL": 22,
                        "TEXCOORD_0": 23
                    },
                    "indices": 20,
                    "mode": 4,
                    "material": 5
                }
            ],
            "name": "SphereBaseColorAO"
        }
    ],
    "accessors": [
        {
            "bufferView": 0,
            "componentType": 5123,
            "count": 2880,
            "type": "SCALAR",
            "name": "accessorIndices"
        },
        {
            "bufferView": 1,
            "componentType": 5126,
            "count": 2880,
            "max": [
                1.0,
                1.0,
                1.0
            ],
            "min": [
                -1.0,
                -1.0,
                -1.0
            ],
            "type": "VEC3",
            "name": "accessorPositions"
        },
        {
            "bufferView": 1,
            "byteOffset": 34560,
            "componentType": 5126,
            "count": 2880,
            "type": "VEC3",
            "name": "accessorNormals"
        },
        {
            "bufferView": 2,
            "componentType": 5126,
            "count": 2880,
            "type": "VEC2",
            "name": "accessorUVs"
        },
        {
            "bufferView": 0,
            "byteOffset": 5760,
            "componentType": 5123,
            "count": 2880,
            "type": "SCALAR",
            "name": "accessorIndices"
        },
        {
            "bufferView": 1,
            "byteOffset": 69120,
            "componentType": 5126,
            "count": 2880,
            "max": [
                1.0,
                1.0,
                1.0
            ],
            "min": [
                -1.0,
                -1.0,
                -1.0
            ],
            "type": "VEC3",
            "name": "accessorPositions"
        },
        {
            "bufferView": 1,
            "byteOffset": 103680,
            "componentType": 5126,
            "count": 2880,
            "type": "VEC3",
            "name": "accessorNormals"
        },
        {
            "bufferView": 2,
            "byteOffset": 23040,
            "componentType": 5126,
            "count": 2880,
            "type": "VEC2",
            "name": "accessorUVs"
        },
        {
            "bufferView": 0,
            "byteOffset": 11520,
            "componentType": 5123,
            "count": 2880,
            "type": "SCALAR",
            "name": "accessorIndices"
        },
        {
            "bufferView": 1,
            "byteOffset": 138240,
            "componentType": 5126,
            "count": 2880,
            "max": [
                1.00000024,
                1.0,
                1.0
            ],
            "min": [
                -1.0,
                -1.0,
                -1.00000024
            ],
            "type": "VEC3",
            "name": "accessorPositions"
        },
        {
            "bufferView": 1,
            "byteOffset": 172800,
            "componentType": 5126,
            "count": 2880,
            "type": "VEC3",
            "name": "accessorNormals"
        },
        {
            "bufferView": 2,
            "byteOffset": 46080,
            "componentType": 5126,
            "count": 2880,
            "type": "VEC2",
            "name": "accessorUVs"
        },
        {
            "bufferView": 0,
            "byteOffset": 17280,
            "componentType": 5123,
            "count": 2880,
            "type": "SCALAR",
            "name": "accessorIndices"
        },
        {
            "bufferView": 1,
            "byteOffset": 207360,
            "componentType": 5126,
            "count": 2880,
            "max": [
                1.00000012,
                1.0,
                0.9999999
            ],
            "min": [
                -1.0,
                -1.0,
                -1.0
            ],
            "type": "VEC3",
            "name": "accessorPositions"
        },
        {
            "bufferView": 1,
            "byteOffset": 241920,
            "componentType": 5126,
            "count": 2880,
            "type": "VEC3",
            "name": "accessorNormals"
        },
        {
            "bufferView": 2,
            "byteOffset": 69120,
            "componentType": 5126,
            "count": 2880,
            "type": "VEC2",
            "name": "accessorUVs"
        },
        {
            "bufferView": 0,
            "byteOffset": 23040,
            "componentType": 5123,
            "count": 2880,
            "type": "SCALAR",
            "name": "accessorIndices"
        },
        {
            "bufferView": 1,
            "byteOffset": 276480,
            "componentType": 5126,
            "count": 2880,
            "max": [
                1.0,
                1.0,
                1.0
            ],
            "min": [
                -1.0,
                -1.0,
                -1.0
            ],
            "type": "VEC3",
            "name": "accessorPositions"
        },
        {
            "bufferView": 1,
            "byteOffset": 311040,
            "componentType": 5126,
            "count": 2880,
            "type": "VEC3",
            "name": "accessorNormals"
        },
        {
            "bufferView": 2,
            "byteOffset": 92160,
            "componentType": 5126,
            "count": 2880,
            "type": "VEC2",
            "name": "accessorUVs"
        },
        {
            "bufferView": 0,
            "byteOffset": 28800,
            "componentType": 5123,
            "count": 2880,
            "type": "SCALAR",
            "name": "accessorIndices"
        },
        {
            "bufferView": 1,
            "byteOffset": 345600,
            "componentType": 5126,
            "count": 2880,
            "max": [
                1.0,
                1.0,
                1.0
            ],
            "min": [
                -1.0,
                -1.0,
                -1.0
            ],
            "type": "VEC3",
            "name": "accessorPositions"
        },
        {
            "bufferView": 1,
            "byteOffset": 380160,
            "componentType": 5126,
            "count": 2880,
            "type": "VEC3",
            "name": "accessorNormals"
        },
        {
            "bufferView": 2,
            "byteOffset": 115200,
            "componentType": 5126,
            "count": 2880,
            "type": "VEC2",
            "name": "accessorUVs"
        }
    ],
    "bufferViews": [
        {
            "buffer": 0,
            "byteLength": 34560,
            "name": "bufferViewScalar"
        },
        {
            "buffer": 0,
            "byteOffset": 34560,
            "byteLength": 414720,
            "byteStride": 12,
            "name": "bufferViewFloatVec3"
        },
        {
            "buffer": 0,
            "byteOffset": 449280,
            "byteLength": 138240,
            "byteStride": 8,
            "name": "bufferViewFloatVec2"
        }
    ],
    "buffers": [
        {
            "uri": "PbrTest.bin",
            "byteLength": 587520
        }
    ],
    "materials": [
        {
            "pbrMetallicRoughness": {
                "baseColorFactor": [
                    0.0,
                    0.0,
                    1.0,
                    1.0
                ],
                "metallicFactor": 0.5,
                "roughnessFactor": 0.5
            },
            "normalTexture": {
                "index": 0,
                "texCoord": 0
            },
            "emissiveFactor": [
                0.0,
                0.0,
                0.0
            ],
            "alphaMode": "OPAQUE",
            "name": "BumpMat"
        },
        {
            "pbrMetallicRoughness": {
                "baseColorFactor": [
                    1.0,
                    1.0,
                    1.0,
                    1.0
                ],
                "baseColorTexture": {
                    "index": 1,
                    "texCoord": 0
                },
                "metallicFactor": 0.0,
                "roughnessFactor": 1.0
            },
            "emissiveFactor": [
                0.0,
                0.0,
                0.0
            ],
            "alphaMode": "OPAQUE",
            "name": "BaseColorMat"
        },
        {
            "pbrMetallicRoughness": {
                "baseColorFactor": [
                    1.0,
                    1.0,
                    1.0,
                    1.0
                ],
                "baseColorTexture": {
                    "index": 2,
                    "texCoord": 0
                },
                "metallicFactor": 0.0,
                "roughnessFactor": 1.0
            },
            "emissiveFactor": [
                0.0,
                0.0,
                0.0
            ],
            "alphaMode": "BLEND",
            "name": "BaseColorAlphaMat"
        },
        {
            "pbrMetallicRoughness": {
                "baseColorFactor": [
                    1.0,
                    0.0,
                    0.0,
                    1.0
                ],
                "metallicFactor": 1.0,
                "roughnessFactor": 1.0,
                "metallicRoughnessTexture": {
                    "index": 3,
                    "texCoord": 0
                }
            },
            "emissiveFactor": [
                0.0,
                0.0,
                0.0
            ],
            "alphaMode": "OPAQUE",
            "name": "MetallicRoughnessMat"
        },
        {
            "pbrMetallicRoughness": {
                "baseColorFactor": [
                    0.0,
                    0.0,
                    0.0,
                    1.0
                ],
                "baseColorTexture": {
                    "index": 4,
                    "texCoord": 0
                },
                "metallicFactor": 0.0,
                "roughnessFactor": 1.0
            },
            "emissiveTexture": {
                "index": 4,
                "texCoord": 0
            },
            "emissiveFactor": [
                1.0,
                1.0,
                1.0
            ],
            "alphaMode": "OPAQUE",
            "name": "EmissiveMat"
        },
        {
            "pbrMetallicRoughness": {
                "baseColorFactor": [
                    1.0,
                    1.0,
                    1.0,
                    1.0
                ],
                "baseColorTexture": {
                    "index": 1,
                    "texCoord": 0
                },
                "metallicFactor": 0.0,
                "roughnessFactor": 1.0
            },
            "occlusionTexture": {
                "index": 6,
                "texCoord": 0
            },
            "emissiveFactor": [
                0.0,
                0.0,
                0.0
            ],
            "alphaMode": "OPAQUE",
            "name": "BaseColorAOMat"
        }
    ],
    "textures": [
        {
            "sampler": 0,
            "source": 0,
            "name": "bump.jpg"
        },
        {
            "sampler": 0,
            "source": 1,
            "name": "wood.jpg"
        },
        {
            "sampler": 0,
            "source": 2,
            "name": "wood.png"
        },
        {
            "sampler": 0,
            "source": 3,
            "name": "gradation_verticalgradation_horizontal.jpg"
        },
        {
            "sampler": 0,
            "source": 4,
            "name": "sun.jpg"
        },
        {
            "sampler": 0,
            "source": 4,
            "name": "sun.jpg"
        },
        {
            "sampler": 0,
            "source": 5,
            "name": "AmbientOcclusion.jpg"
        },
        {
            "sampler": 0,
            "source": 1,
            "name": "wood.jpg"
        }
    ],
    "images": [
        {
            "uri": "bump.jpg"
        },
        {
            "uri": "wood.jpg"
        },
        {
            "uri": "wood.png"
        },
        {
            "uri": "gradation_verticalgradation_horizontal.jpg"
        },
        {
            "uri": "sun.jpg"
        },
        {
            "uri": "AmbientOcclusion.jpg"
        }
    ],
    "samplers": [
        {
            "magFilter": 9729,
            "minFilter": 9987,
            "wrapS": 10497,
            "wrapT": 10497
        }
    ]
}